  <svg width="85" height="60"
            xmlns="http://www.w3.org/2000/svg" class="truck">
            <path id="svg_1" d="m5.138,54.039a3.77,3.77 0 0 1
                -0.149,-0.005l-0.859,0.002a4.134,4.134 0 0 1
                -4.13,-4.13l0,-44.711a4.135,4.135 0 0 1
                4.13,-4.133l46.973,0c2.272,0 4.123,1.95
                4.123,4.229l0,44.612a4.133,4.133 0 0 1
                -4.127,4.131l-21.137,0c-1.091,-0.019 -3.239,-0.691
                -3.727,-3.128c-1.067,-3.957 -4.755,-6.789 -8.947,-6.789c-4.291,0
                -8.098,3.041 -9.051,7.229c-0.225,1.817 -1.723,2.693
                -3.099,2.693zm-1.011,-49.831c-0.596,0 -1.083,0.389
                -1.083,0.987l0,44.709c0,0.597 0.488,1.086
                1.086,1.086l1.004,0c0.005,-0.047 0.123,-0.271
                0.133,-0.317c1.267,-5.562 6.323,-9.597
                12.022,-9.597a12.356,12.356 0 0 1 11.912,9.137c0.151,0.734
                0.681,0.777 0.785,0.777l21.111,0c0.596,0 1.083,-0.487
                1.083,-1.084l0,-44.613c0,-0.598 -0.485,-1.085
                -1.083,-1.085l-46.97,0zm80.802,31.62s-0.093,-2.093
                -0.288,-3.118c-0.164,-0.873 -1.087,-2.644
                -1.087,-2.644l-7.299,-13.59c-0.951,-1.52 -3.115,-2.707
                -4.558,-2.707l-10.912,0a2.608,2.608 0 0 0
                -2.606,2.609l0,33.526a2.609,2.609 0 0 0
                2.606,2.609l0.643,0s0.949,-0.123 1.304,-1.312c0.986,-3.933
                4.514,-6.862 8.749,-6.862c4.145,0 7.612,2.808
                8.682,6.613c0.442,1.612 2.231,1.561 2.231,1.561a2.608,2.608 0 0
                0
                2.606,-2.609l-0.071,-14.076zm-6.603,-3.511l-13.014,0a1.996,1.996
                0 0 1 -1.989,-1.99l0,-10.184c0,-1.098 0.894,-1.99
                1.989,-1.99l4.365,0c2.483,0 4.117,2.009
                4.63,2.978l5.065,9.434c0.521,0.962 0.053,1.752 -1.046,1.752z"
                fill="#ccc"/>
                <path id="svg_2" d="m4.127,4.208c-0.596,0 -1.083,0.389
                    -1.083,0.987l0,44.709c0,0.597 0.488,1.086
                    1.086,1.086l1.004,0c0.005,-0.047 0.123,-0.271
                    0.133,-0.317c1.267,-5.562 6.323,-9.597
                    12.022,-9.597a12.356,12.356 0 0 1 11.912,9.137c0.151,0.734
                    0.681,0.777 0.785,0.777l21.111,0c0.596,0 1.083,-0.487
                    1.083,-1.084l0,-44.613c0,-0.598 -0.485,-1.085
                    -1.083,-1.085l-46.97,0z" fill="#25252D"/>
                    <path fill="#ccc"
                        d="m36.27411,17.63081l-16.41727,0c-1.04605,0
                        -1.89405,0.72829 -1.89405,1.62673l0,9.7604c0,0.89842
                        0.848,1.62673 1.89405,1.62673l16.41727,0c1.04605,0
                        1.89405,-0.72832 1.89405,-1.62673l0,-9.7604c0,-0.89844
                        -0.848,-1.62673
                        -1.89405,-1.62673zm1.2627,11.14605l-5.97222,-5.12931l5.97222,-3.26854l0,8.39785zm-17.67996,-10.6038l16.41727,0c0.69625,0
                        1.2627,0.48647
                        1.2627,1.08449l0,0.47891l-8.69233,4.75738c-0.47042,0.25738
                        -1.07124,0.24943
                        -1.5309,-0.01906l-8.71944,-5.08994l0,-0.12729c0,-0.59801
                        0.56648,-1.08449
                        1.2627,-1.08449zm-1.2627,1.86673l6.05644,3.53541l-6.05644,5.20167l0,-8.73707zm17.67996,10.06264l-16.41727,0c-0.52004,0
                        -0.9672,-0.27169
                        -1.16045,-0.65826l6.47761,-5.56343l1.78508,1.04203c0.34279,0.20017
                        0.73925,0.30051 1.1363,0.30051c0.37733,0
                        0.75525,-0.09055
                        1.08791,-0.27245l1.8443,-1.00939l6.40697,5.50272c-0.19326,0.38657
                        -0.6404,0.65826 -1.16045,0.65826z" id="svg_4"/>
                    </svg>